# xmcd
#
# Track frame offsets:
#	150
#	18405
#	29087
#	39460
#	50602
#	61682
#	73357
#	84975
#
# Disc length: 1298 seconds
#
# Revision: 1
# Processed by: cddbd v1.5.1PL2 Copyright (c) Steve Scherf et al.
# Submitted via: audiograbber 1.83.01
#
DISCID=69051008
DTITLE=Brook Benton - Brook Benton Greatest Hits
DYEAR=1995
DGENRE=Ballad
TTITLE0=Rainy Night In Georgia
TTITLE1=Thank You Pretty Baby
TTITLE2=Fools Rush In
TTITLE3=So Many Ways
TTITLE4=It's Just A Matter Of Time
TTITLE5=Hotel Happiness
TTITLE6=Kiddio
TTITLE7=The Boll Weevil Song
EXTD=
EXTT0=
EXTT1=
EXTT2=
EXTT3=
EXTT4=
EXTT5=
EXTT6=
EXTT7=
PLAYORDER=
